<svg xmlns="http://www.w3.org/2000/svg" viewBox="0 0 700 520" xml:space="preserve">
  <defs>
    <style>
      @font-face{font-family:'SF Mono';src:local('SF Mono'),local('Menlo'),local('Consolas'),local('Courier New');}
    </style>
  </defs>
  <rect x="4" y="4" rx="12" ry="12" width="692" height="512" fill="#00000040"/>
  <rect x="0" y="0" rx="12" ry="12" width="692" height="512" fill="#0f1018"/>
  <rect x="0" y="0" rx="12" ry="12" width="692" height="36" fill="#16161e" opacity=".92"/>
  <circle cx="16" cy="18" r="5" fill="#ff5f57"/>
  <circle cx="34" cy="18" r="5" fill="#febc2e"/>
  <circle cx="52" cy="18" r="5" fill="#28c840"/>
  <text x="346" y="23" text-anchor="middle" font-size="11" fill="#51587a" font-family="'SF Mono',Menlo,monospace">gh-browser — psf/requests</text>

  <!-- Branch bar -->
  <rect x="20" y="48" rx="6" ry="6" width="660" height="24" fill="#1c1d2b" opacity=".82"/>
  <text x="42" y="64" font-size="11" fill="#51587a" font-family="'SF Mono',Menlo,monospace">⎇ main</text>
  <rect x="100" y="52" rx="3" ry="3" width="70" height="16" fill="#1c1d2b" stroke="#262840" stroke-width="1"/>
  <text x="108" y="64" font-size="10" fill="#c0caf5" font-family="-apple-system,'Segoe UI',sans-serif">main</text>

  <!-- Repo header (glass card) -->
  <rect x="20" y="80" rx="10" ry="10" width="660" height="56" fill="#1c1d2b" opacity=".82"/>
  <rect x="20" y="80" rx="10" ry="10" width="660" height="56" fill="none" stroke="rgba(255,255,255,.06)" stroke-width="1"/>
  <rect x="32" y="90" width="36" height="36" rx="8" fill="#3b4261"/>
  <circle cx="50" cy="100" r="8" fill="#89a0c2" opacity=".4"/>
  <circle cx="50" cy="114" r="8" fill="#89a0c2" opacity=".2"/>
  <text x="78" y="103" font-size="15" fill="#c0caf5" font-weight="700" font-family="-apple-system,'Segoe UI',sans-serif">psf/requests</text>
  <!-- Verified badge -->
  <circle cx="170" cy="99" r="8" fill="#7ecb8b" opacity=".15" stroke="#7ecb8b" stroke-width="1.5"/>
  <path d="M166 99l2.5 2 4-4" stroke="#7ecb8b" stroke-width="1.8" fill="none" stroke-linecap="round" stroke-linejoin="round"/>
  <text x="78" y="120" font-size="11" fill="#9aa1c9" font-family="-apple-system,'Segoe UI',sans-serif">A simple, yet elegant HTTP library for Python.</text>

  <!-- Stats -->
  <text x="510" y="100" font-size="11" fill="#51587a" font-family="-apple-system,'Segoe UI',sans-serif">
    <tspan fill="#c0caf5" font-weight="600">52,934</tspan> ★
  </text>
  <text x="510" y="118" font-size="11" fill="#51587a" font-family="-apple-system,'Segoe UI',sans-serif">
    <tspan fill="#c0caf5" font-weight="600">9,482</tspan> ⑂
  </text>

  <!-- Breadcrumb (glass) -->
  <rect x="20" y="144" rx="10" ry="10" width="660" height="28" fill="#1c1d2b" opacity=".82"/>
  <rect x="20" y="144" rx="10" ry="10" width="660" height="28" fill="none" stroke="rgba(255,255,255,.06)" stroke-width="1"/>
  <text x="36" y="162" font-size="12" fill="#7aa2f7" font-family="-apple-system,'Segoe UI',sans-serif">requests</text>
  <text x="106" y="162" font-size="12" fill="#51587a" font-family="-apple-system,'Segoe UI',sans-serif">/</text>
  <text x="118" y="162" font-size="12" fill="#7aa2f7" font-family="-apple-system,'Segoe UI',sans-serif">src</text>
  <text x="148" y="162" font-size="12" fill="#51587a" font-family="-apple-system,'Segoe UI',sans-serif">/</text>
  <text x="160" y="162" font-size="12" fill="#9aa1c9" font-family="-apple-system,'Segoe UI',sans-serif">requests</text>

  <!-- README collapsed (glass card) -->
  <rect x="20" y="180" rx="10" ry="10" width="660" height="120" fill="#1c1d2b" opacity=".82"/>
  <rect x="20" y="180" rx="10" ry="10" width="660" height="120" fill="none" stroke="rgba(255,255,255,.06)" stroke-width="1"/>
  <text x="36" y="200" font-size="18" fill="#c0caf5" font-weight="700" font-family="-apple-system,'Segoe UI',sans-serif">Requests</text>
  <line x1="36" y1="208" x2="664" y2="208" stroke="rgba(255,255,255,.06)" stroke-width="1"/>
  <text x="36" y="226" font-size="12" fill="#9aa1c9" font-family="-apple-system,'Segoe UI',sans-serif">Requests is a simple, yet elegant HTTP library for Python.</text>
  <text x="36" y="244" font-size="12" fill="#9aa1c9" font-family="-apple-system,'Segoe UI',sans-serif">It is designed to be intuitive, well-documented, and</text>
  <text x="36" y="262" font-size="12" fill="#9aa1c9" font-family="-apple-system,'Segoe UI',sans-serif">battle-tested. This library allows you to send HTTP/1.1</text>
  <text x="36" y="280" font-size="12" fill="#9aa1c9" font-family="-apple-system,'Segoe UI',sans-serif">requests with incredible ease.</text>
  <!-- Gradient overlay -->
  <rect x="20" y="280" rx="0" ry="0" width="660" height="20" fill="#0f1018" opacity=".6"/>
  <!-- Show more -->
  <rect x="20" y="300" rx="0" ry="0" width="660" height="10" fill="#1c1d2b" opacity=".82"/>
  <rect x="20" y="300" rx="0" ry="10" width="660" height="10" fill="none" stroke="rgba(255,255,255,.06)" stroke-width="1"/>
  <text x="346" y="308" text-anchor="middle" font-size="11" fill="#9aa1c9" font-family="-apple-system,'Segoe UI',sans-serif">Show more</text>

  <!-- File tree header -->
  <rect x="20" y="320" rx="10" ry="10" width="660" height="26" fill="#1c1d2b" opacity=".82"/>
  <rect x="20" y="320" rx="10" ry="10" width="660" height="26" fill="none" stroke="rgba(255,255,255,.06)" stroke-width="1"/>
  <text x="36" y="336" font-size="10" fill="#51587a" font-family="-apple-system,'Segoe UI',sans-serif">NAME</text>
  <text x="536" y="336" font-size="10" fill="#51587a" font-family="-apple-system,'Segoe UI',sans-serif">SIZE</text>

  <!-- File items with SVG icons -->
  <!-- dir -->
  <text x="36" y="354" font-size="11" fill="#89a0c2" font-family="-apple-system,'Segoe UI',sans-serif">📁 packages</text>
  <!-- dir -->
  <text x="36" y="372" font-size="11" fill="#89a0c2" font-family="-apple-system,'Segoe UI',sans-serif">📁 __pycache__</text>
  <!-- code file -->
  <text x="36" y="390" font-size="11" fill="#b4f9f8" font-family="-apple-system,'Segoe UI',sans-serif">&lt;/&gt; __init__.py</text>
  <text x="536" y="390" font-size="11" fill="#51587a" font-family="-apple-system,'Segoe UI',sans-serif">2.1 KB</text>
  <!-- code file -->
  <text x="36" y="408" font-size="11" fill="#b4f9f8" font-family="-apple-system,'Segoe UI',sans-serif">&lt;/&gt; api.py</text>
  <text x="536" y="408" font-size="11" fill="#51587a" font-family="-apple-system,'Segoe UI',sans-serif">6.8 KB</text>
  <!-- code file -->
  <text x="36" y="426" font-size="11" fill="#b4f9f8" font-family="-apple-system,'Segoe UI',sans-serif">&lt;/&gt; models.py</text>
  <text x="536" y="426" font-size="11" fill="#51587a" font-family="-apple-system,'Segoe UI',sans-serif">32.4 KB</text>
  <!-- code file -->
  <text x="36" y="444" font-size="11" fill="#b4f9f8" font-family="-apple-system,'Segoe UI',sans-serif">&lt;/&gt; sessions.py</text>
  <text x="536" y="444" font-size="11" fill="#51587a" font-family="-apple-system,'Segoe UI',sans-serif">15.7 KB</text>
  <!-- code file -->
  <text x="36" y="462" font-size="11" fill="#b4f9f8" font-family="-apple-system,'Segoe UI',sans-serif">&lt;/&gt; utils.py</text>
  <text x="536" y="462" font-size="11" fill="#51587a" font-family="-apple-system,'Segoe UI',sans-serif">7.1 KB</text>
  <!-- code file -->
  <text x="36" y="480" font-size="11" fill="#b4f9f8" font-family="-apple-system,'Segoe UI',sans-serif">&lt;/&gt; hooks.py</text>
  <text x="536" y="480" font-size="11" fill="#51587a" font-family="-apple-system,'Segoe UI',sans-serif">3.4 KB</text>

  <!-- Status bar -->
  <rect x="20" y="490" rx="6" ry="6" width="660" height="20" fill="#1c1d2b" opacity=".5"/>
  <text x="36" y="504" font-size="10" fill="#51587a" font-family="'SF Mono',Menlo,monospace">API: 4921 req left (reset 06:22:17)</text>
</svg>
